<?xml version="1.0" encoding="utf-8"?>
<!-- Generator: Adobe Illustrator 26.0.1, SVG Export Plug-In . SVG Version: 6.00 Build 0)  -->
<svg version="1.1" id="圖層_1" xmlns="http://www.w3.org/2000/svg" xmlns:xlink="http://www.w3.org/1999/xlink" x="0px" y="0px"
	 viewBox="0 0 145 154" style="enable-background:new 0 0 145 154;" xml:space="preserve">
<style type="text/css">
	.st0{clip-path:url(#SVGID_00000041286676417937197010000005637863818637336728_);}
	.st1{fill:none;stroke:#B2C1C5;stroke-linecap:round;stroke-linejoin:round;stroke-miterlimit:10;}
	.st2{fill:#D6D2C9;stroke:#877F77;stroke-miterlimit:10;}
	.st3{fill:none;stroke:#877F77;stroke-miterlimit:10;}
	.st4{fill:#FFFFFF;}
	.st5{fill:#F9F8F7;stroke:#877F77;stroke-miterlimit:10;}
	.st6{fill:#FFFFFF;stroke:#B2C1C5;stroke-linecap:round;stroke-linejoin:round;stroke-miterlimit:10;}
	.st7{fill:#F9F9F9;stroke:#89827C;stroke-miterlimit:10;}
	.st8{fill:#B0A99F;stroke:#89827C;stroke-miterlimit:10;}
	.st9{fill:#B0A99F;}
</style>
<g>
	<g>
		<defs>
			<rect id="SVGID_1_" width="144.2" height="154"/>
		</defs>
		<clipPath id="SVGID_00000054243780066525984070000000216172662129978504_">
			<use xlink:href="#SVGID_1_"  style="overflow:visible;"/>
		</clipPath>
		<g style="clip-path:url(#SVGID_00000054243780066525984070000000216172662129978504_);">
			<path class="st1" d="M0.5,0.5h143.2"/>
			<path class="st2" d="M131.6,0.5h-119v131.4h119V0.5z"/>
			<path class="st3" d="M0.5,131.9h143.2"/>
			<path class="st4" d="M67.5,121.8l-15.8,8.4c-2.9,1.5-4,5.2-2.5,8.1c1.5,2.9,5.2,4,8.1,2.5l7.4-3.8"/>
			<path class="st3" d="M67.5,121.8l-15.8,8.4c-2.9,1.5-4,5.2-2.5,8.1c1.5,2.9,5.2,4,8.1,2.5l7.4-3.8"/>
			<path class="st5" d="M70.4,112.4l-20.7,5.1c-3.2,0.8-5.2,4.1-4.4,7.3c0.8,3.2,4.1,5.2,7.3,4.4l20.6-5.1c3.2-0.8,5.2-4.1,4.4-7.3
				S73.6,111.6,70.4,112.4z"/>
			<path class="st4" d="M108.6,137H74.8v-27l21.1-0.4l14.7,6.5l1.4,10.4L108.6,137z"/>
			<path class="st5" d="M76.6,99.5l-28.7,7.1c-3.8,0.9-6.2,4.8-5.2,8.6c0.9,3.8,4.8,6.2,8.6,5.2l28.7-7.1c3.8-0.9,6.2-4.8,5.2-8.6
				C84.3,100.9,80.4,98.6,76.6,99.5z"/>
			<path class="st6" d="M82.3,90.9L53,94.2c-3.9,0.4-6.7,4-6.3,7.9s4,6.7,7.9,6.3l29.4-3.3c3.9-0.4,6.7-4,6.3-7.9
				C89.8,93.3,86.2,90.5,82.3,90.9z"/>
			<path class="st4" d="M112.2,122.8c0.5-4.9,0.9-8-2.1-10.6L88,92.7c-2.9-2.6-7.5-2.3-10.1,0.7c-2.6,2.9-2.3,7.5,0.7,10.1"/>
			<path class="st3" d="M112.2,122.8c0.5-4.9,0.9-8-2.1-10.6L88,92.7c-2.9-2.6-7.5-2.3-10.1,0.7c-2.6,2.9-2.3,7.5,0.7,10.1"/>
			<path class="st7" d="M103,48H39.7v67.2H103V48z"/>
			<path class="st4" d="M84.8,131.9l-10.7-23.3c-2-4.3-7.1-6.2-11.3-4.2s-6.2,7.1-4.2,11.3L69.3,139c0,0-3.6,4.9-3.6,14.4"/>
			<path class="st3" d="M84.8,131.9l-10.7-23.3c-2-4.3-7.1-6.2-11.3-4.2s-6.2,7.1-4.2,11.3L69.3,139c0,0-3.6,4.9-3.6,14.4"/>
			<path class="st8" d="M98.8,52.4h-55v30.4h55V52.4z"/>
			<path class="st3" d="M64.8,137c0,0-0.4,4.5,2,7.7"/>
			<path class="st3" d="M112.6,117.5c0,0,0.9,14.8-12.1,36"/>
			
				<rect x="166.5" y="88.6" transform="matrix(0.9999 -1.600470e-02 1.600470e-02 0.9999 -1.6178 2.9003)" class="st9" width="27.8" height="27.8"/>
		</g>
	</g>
</g>
</svg>
