<svg width="160" height="127" viewBox="0 0 160 127" fill="none" xmlns="http://www.w3.org/2000/svg">
<g clip-path="url(#clip0_143_521)">
<path d="M88.46 0.5L0.5 15.05V114.66L88.46 100.11V0.5Z" fill="#FFFEF8" stroke="#B2C1C5" stroke-miterlimit="10" stroke-linecap="round" stroke-linejoin="round"/>
<path d="M88.46 0.5L159.1 26.53V126.14L88.46 100.11V0.5Z" fill="#EAF4F4" stroke="#B2C1C5" stroke-miterlimit="10" stroke-linecap="round" stroke-linejoin="round"/>
<path d="M29.57 119.83C35.4739 119.83 40.26 118.585 40.26 117.05C40.26 115.515 35.4739 114.27 29.57 114.27C23.6661 114.27 18.88 115.515 18.88 117.05C18.88 118.585 23.6661 119.83 29.57 119.83Z" fill="white" stroke="#B2C1C5" stroke-miterlimit="10" stroke-linecap="round" stroke-linejoin="round"/>
<path d="M29.57 117.2C28.92 117.2 28.39 116.67 28.39 116.02V70.88H30.76V116.02C30.75 116.67 30.22 117.2 29.57 117.2Z" fill="white" stroke="#B2C1C5" stroke-miterlimit="10" stroke-linecap="round" stroke-linejoin="round"/>
<path d="M21.03 59.63L17.99 73.99C17.99 75.29 23.17 76.35 29.57 76.35C35.97 76.35 41.15 75.3 41.15 73.99L38.11 59.63" fill="#D3E2E2"/>
<path d="M21.03 59.63L17.99 73.99C17.99 75.29 23.17 76.35 29.57 76.35C35.97 76.35 41.15 75.3 41.15 73.99L38.11 59.63" stroke="#B2C1C5" stroke-miterlimit="10" stroke-linecap="round" stroke-linejoin="round"/>
<path d="M29.57 61.99C34.2865 61.99 38.11 60.9334 38.11 59.63C38.11 58.3266 34.2865 57.27 29.57 57.27C24.8535 57.27 21.03 58.3266 21.03 59.63C21.03 60.9334 24.8535 61.99 29.57 61.99Z" fill="white" stroke="#B2C1C5" stroke-miterlimit="10" stroke-linecap="round" stroke-linejoin="round"/>
<path d="M68.65 29.96L48.21 33.34V56.49L68.65 53.11V29.96Z" fill="white" stroke="#B2C1C5" stroke-miterlimit="10" stroke-linecap="round" stroke-linejoin="round"/>
<path d="M66.41 32.87L50.45 35.51V53.58L66.41 50.94V32.87Z" fill="white" stroke="#B2C1C5" stroke-miterlimit="10" stroke-linecap="round" stroke-linejoin="round"/>
<path d="M55.72 32.1L58.51 28.24L60.9 31.24" stroke="#B2C1C5" stroke-miterlimit="10" stroke-linecap="round" stroke-linejoin="round"/>
</g>
<defs>
<clipPath id="clip0_143_521">
<rect width="159.6" height="126.64" fill="white"/>
</clipPath>
</defs>
</svg>
