<svg width="172" height="105" viewBox="0 0 172 105" fill="none" xmlns="http://www.w3.org/2000/svg">
<g clip-path="url(#clip0_143_461)">
<path d="M28 0.5H0.5V28H28V0.5Z" fill="#D3E2E2" stroke="#B2C1C5" stroke-miterlimit="10" stroke-linecap="round" stroke-linejoin="round"/>
<path d="M63.78 0.5H36.28V28H63.78V0.5Z" fill="#EAF4F4" stroke="#B2C1C5" stroke-miterlimit="10" stroke-linecap="round" stroke-linejoin="round"/>
<path d="M99.5601 0.5H72.0601V28H99.5601V0.5Z" fill="#FFFEF8" stroke="#B2C1C5" stroke-miterlimit="10" stroke-linecap="round" stroke-linejoin="round"/>
<path d="M135.34 0.5H107.84V28H135.34V0.5Z" fill="#EAF4F4" stroke="#B2C1C5" stroke-miterlimit="10" stroke-linecap="round" stroke-linejoin="round"/>
<path d="M171.12 0.5H143.62V28H171.12V0.5Z" fill="#D3E2E2" stroke="#B2C1C5" stroke-miterlimit="10" stroke-linecap="round" stroke-linejoin="round"/>
<path d="M28 36.54H0.5V64.04H28V36.54Z" fill="#FFFEF8" stroke="#B2C1C5" stroke-miterlimit="10" stroke-linecap="round" stroke-linejoin="round"/>
<path d="M63.78 36.54H36.28V64.04H63.78V36.54Z" stroke="#B2C1C5" stroke-miterlimit="10"/>
<path d="M99.5601 36.54H72.0601V64.04H99.5601V36.54Z" fill="#D3E2E2" stroke="#B2C1C5" stroke-miterlimit="10" stroke-linecap="round" stroke-linejoin="round"/>
<path d="M135.34 36.54H107.84V64.04H135.34V36.54Z" fill="#FFFEF8" stroke="#B2C1C5" stroke-miterlimit="10" stroke-linecap="round" stroke-linejoin="round"/>
<path d="M171.12 36.54H143.62V64.04H171.12V36.54Z" fill="#EAF4F4" stroke="#B2C1C5" stroke-miterlimit="10" stroke-linecap="round" stroke-linejoin="round"/>
<path d="M28 72.58H0.5V100.08H28V72.58Z" fill="#EAF4F4" stroke="#B2C1C5" stroke-miterlimit="10" stroke-linecap="round" stroke-linejoin="round"/>
<path d="M63.78 72.58H36.28V100.08H63.78V72.58Z" fill="#FFFEF8" stroke="#B2C1C5" stroke-miterlimit="10" stroke-linecap="round" stroke-linejoin="round"/>
<path d="M103.703 78.705L78.1909 68.4392L67.9252 93.951L93.4369 104.217L103.703 78.705Z" fill="#EAF4F4" stroke="#B2C1C5" stroke-miterlimit="10" stroke-linecap="round" stroke-linejoin="round"/>
</g>
<defs>
<clipPath id="clip0_143_461">
<rect width="171.62" height="104.72" fill="white"/>
</clipPath>
</defs>
</svg>
