<?xml version="1.0" encoding="utf-8"?>
<!-- Generator: Adobe Illustrator 26.0.1, SVG Export Plug-In . SVG Version: 6.00 Build 0)  -->
<svg version="1.1" id="圖層_1" xmlns="http://www.w3.org/2000/svg" xmlns:xlink="http://www.w3.org/1999/xlink" x="0px" y="0px"
	 viewBox="0 0 160 127" style="enable-background:new 0 0 160 127;" xml:space="preserve">
<style type="text/css">
	.st0{clip-path:url(#SVGID_00000037669359599361609880000016433791777785930678_);}
	.st1{fill:#CCC3B6;stroke:#7C7472;stroke-miterlimit:10;}
	.st2{fill:#F4EDE4;stroke:#7C7472;stroke-miterlimit:10;}
	.st3{fill:#E8E8E8;stroke:#7C7472;stroke-miterlimit:10;}
	.st4{fill:#F9F9F9;stroke:#7C7472;stroke-miterlimit:10;}
	.st5{fill:#EFEFEF;stroke:#7C7472;stroke-miterlimit:10;}
	.st6{fill:#F7F1E8;stroke:#7C7472;stroke-miterlimit:10;}
</style>
<g>
	<defs>
		<rect id="SVGID_1_" y="0" width="159.6" height="126.6"/>
	</defs>
	<clipPath id="SVGID_00000038379109705755660310000015673502282715561870_">
		<use xlink:href="#SVGID_1_"  style="overflow:visible;"/>
	</clipPath>
	<g style="clip-path:url(#SVGID_00000038379109705755660310000015673502282715561870_);">
		<path class="st1" d="M88.5,0.5l-88,14.6v99.6l88-14.6V0.5z"/>
		<path class="st2" d="M88.5,0.5l70.6,26v99.6l-70.6-26V0.5z"/>
		<path class="st3" d="M29.6,119.8c5.9,0,10.7-1.2,10.7-2.8c0-1.5-4.8-2.8-10.7-2.8s-10.7,1.2-10.7,2.8
			C18.9,118.6,23.7,119.8,29.6,119.8z"/>
		<path class="st4" d="M29.6,117.2c-0.6,0-1.2-0.5-1.2-1.2V70.9h2.4V116C30.8,116.7,30.2,117.2,29.6,117.2z"/>
		<path class="st4" d="M21,59.6L18,74c0,1.3,5.2,2.4,11.6,2.4s11.6-1,11.6-2.4l-3-14.4"/>
		<path class="st5" d="M21,59.6L18,74c0,1.3,5.2,2.4,11.6,2.4s11.6-1,11.6-2.4l-3-14.4"/>
		<path class="st4" d="M29.6,62c4.7,0,8.5-1.1,8.5-2.4c0-1.3-3.8-2.4-8.5-2.4S21,58.3,21,59.6C21,60.9,24.9,62,29.6,62z"/>
		<path class="st4" d="M68.7,30l-20.4,3.4v23.2l20.4-3.4V30z"/>
		<path class="st6" d="M66.4,32.9l-16,2.6v18.1l16-2.6V32.9z"/>
		<path class="st4" d="M55.7,32.1l2.8-3.9l2.4,3"/>
	</g>
</g>
</svg>
