<?xml version="1.0" encoding="utf-8"?>
<!-- Generator: Adobe Illustrator 26.0.1, SVG Export Plug-In . SVG Version: 6.00 Build 0)  -->
<svg version="1.1" id="圖層_1" xmlns="http://www.w3.org/2000/svg" xmlns:xlink="http://www.w3.org/1999/xlink" x="0px" y="0px"
	 viewBox="0 0 172 105" style="enable-background:new 0 0 172 105;" xml:space="preserve">
<style type="text/css">
	.st0{fill:#FCFBFA;stroke:#D3CCC1;stroke-miterlimit:10;}
	.st1{fill:#CEC2B6;stroke:#AFAAA7;stroke-miterlimit:10;}
	.st2{fill:#B0A99F;stroke:#EFE8E4;stroke-miterlimit:10;}
	.st3{fill:#E0DFDE;stroke:#C9C9C9;stroke-miterlimit:10;}
	.st4{fill:#D6D2C9;stroke:#F9F8F7;stroke-miterlimit:10;}
	.st5{fill:#D3D3D3;stroke:#C6C2C1;stroke-miterlimit:10;}
	.st6{fill:#D3CCC1;stroke:#C1BCB4;stroke-miterlimit:10;}
	.st7{fill:#B0A99F;stroke:#D1CECD;stroke-miterlimit:10;}
</style>
<rect x="36.2" y="36.5" class="st0" width="27.8" height="27.8"/>
<rect x="0.6" y="0.5" class="st0" width="27.8" height="27.8"/>
<rect x="36.2" y="0.6" class="st1" width="27.8" height="27.8"/>
<rect x="72" y="0.6" class="st2" width="27.8" height="27.8"/>
<rect x="107.5" y="0.7" class="st0" width="27.8" height="27.8"/>
<rect x="143.6" y="0.7" class="st3" width="27.8" height="27.8"/>
<rect x="0.6" y="36.4" class="st4" width="27.8" height="27.8"/>
<rect x="72.1" y="36.5" class="st4" width="27.8" height="27.8"/>
<rect x="107.5" y="36.6" class="st2" width="27.8" height="27.8"/>
<rect x="143.7" y="36.6" class="st1" width="27.8" height="27.8"/>
<rect x="0.3" y="72.6" class="st5" width="27.8" height="27.8"/>
<rect x="36" y="72.7" class="st6" width="27.8" height="27.8"/>
<rect x="71.8" y="71.4" transform="matrix(0.9217 0.3879 -0.3879 0.9217 39.8156 -26.5753)" class="st7" width="27.8" height="27.8"/>
<g>
	<defs>
		<rect id="SVGID_1_" y="0" width="171.6" height="104.7"/>
	</defs>
	<clipPath id="SVGID_00000031917280636304762510000005040468685458847365_">
		<use xlink:href="#SVGID_1_"  style="overflow:visible;"/>
	</clipPath>
</g>
</svg>
