<?xml version="1.0" encoding="utf-8"?>
<!-- Generator: Adobe Illustrator 26.0.1, SVG Export Plug-In . SVG Version: 6.00 Build 0)  -->
<svg version="1.1" id="圖層_1" xmlns="http://www.w3.org/2000/svg" xmlns:xlink="http://www.w3.org/1999/xlink" x="0px" y="0px"
	 viewBox="0 0 146 125" style="enable-background:new 0 0 146 125;" xml:space="preserve">
<style type="text/css">
	.st0{clip-path:url(#SVGID_00000033326847298437282160000003801775362675268774_);}
	.st1{fill:#E0E0E0;stroke:#7C7472;stroke-miterlimit:10;}
	.st2{fill:#F9F9F9;stroke:#7C7472;stroke-miterlimit:10;}
	.st3{fill:#B0A99F;stroke:#7C7472;stroke-miterlimit:10;}
	.st4{fill:#E2DDD7;stroke:#7C7472;stroke-miterlimit:10;}
	.st5{fill:none;stroke:#7C7472;stroke-miterlimit:10;}
	.st6{fill:#EFEFEF;stroke:#7C7472;stroke-miterlimit:10;}
	.st7{fill:#E0DDDA;stroke:#7C7472;stroke-miterlimit:10;}
</style>
<g>
	<g>
		<defs>
			<rect id="SVGID_1_" width="145.5" height="124.4"/>
		</defs>
		<clipPath id="SVGID_00000139991342313122737550000004498629996606459777_">
			<use xlink:href="#SVGID_1_"  style="overflow:visible;"/>
		</clipPath>
		<g style="clip-path:url(#SVGID_00000139991342313122737550000004498629996606459777_);">
			<path class="st1" d="M0.5,59.8v28.3l3.4-2.8V70.9"/>
			<path class="st2" d="M20.1,79.4c10.8,0,19.6-8.8,19.6-19.6s-8.8-19.6-19.6-19.6S0.5,49,0.5,59.8S9.3,79.4,20.1,79.4z"/>
			<path class="st3" d="M102.1,86.7v3.6c0,1.5,0.9,2.9,2.2,3.5l7.5,3.6c3.1,1.5,5.1,4.6,5.1,8.1V119c0,2.5,1.8,4.7,4.3,4.9
				c2.8,0.3,5.2-2,5.2-4.7v-13.8c0-3.5,2-6.6,5.1-8.1l7.5-3.6c1.3-0.6,2.2-2,2.2-3.5v-3.6L102.1,86.7L102.1,86.7z"/>
			<path class="st4" d="M100.4,22.4H37.6c-3.4,0-6.1-2.7-6.1-6.1V6.6c0-3.4,2.7-6.1,6.1-6.1h62.8c3.3,0,6.1,2.7,6.1,6.1v9.7
				C106.5,19.6,103.7,22.4,100.4,22.4z"/>
			<path class="st5" d="M106.5,11.4h4.2v19L69,50.1v6.1"/>
			<path class="st6" d="M74.2,71.5L74.2,71.5L76,56.2H61.9l1.9,15.3c-1.4,12-1.8,24.1-1,36.2l1,16.3h10.5l1-16.3
				C76,95.6,75.6,83.5,74.2,71.5z"/>
			<path class="st7" d="M141.2,68.5h-39.1v18.2h39.1V68.5z"/>
			<path class="st2" d="M145,42.6H98.3l3.8,25.9h39.1L145,42.6z"/>
			<path class="st3" d="M121.7,120.9c1.3,0,2.3-1,2.3-2.3s-1-2.3-2.3-2.3s-2.3,1-2.3,2.3S120.4,120.9,121.7,120.9z"/>
			<path class="st7" d="M104.1,42.6l1.7,10.8"/>
			<path class="st7" d="M138.4,42.6l-2.9,17"/>
			<path class="st6" d="M20.1,69.4c5.3,0,9.6-4.3,9.6-9.6s-4.3-9.6-9.6-9.6s-9.6,4.3-9.6,9.6S14.8,69.4,20.1,69.4z"/>
		</g>
	</g>
</g>
</svg>
