<svg width="145" height="154" viewBox="0 0 145 154" fill="none" xmlns="http://www.w3.org/2000/svg">
<g clip-path="url(#clip0_143_491)">
<path d="M0.5 0.5H143.68" stroke="#B2C1C5" stroke-miterlimit="10" stroke-linecap="round" stroke-linejoin="round"/>
<path d="M131.59 0.5H12.6V131.92H131.59V0.5Z" fill="#EAF4F4" stroke="#B2C1C5" stroke-miterlimit="10" stroke-linecap="round" stroke-linejoin="round"/>
<path d="M0.5 131.92H143.68" stroke="#B2C1C5" stroke-miterlimit="10" stroke-linecap="round" stroke-linejoin="round"/>
<path d="M67.53 121.81L51.73 130.21C48.81 131.76 47.7 135.42 49.25 138.33C50.8 141.25 54.46 142.36 57.37 140.81L64.81 137.02" fill="white"/>
<path d="M67.53 121.81L51.73 130.21C48.81 131.76 47.7 135.42 49.25 138.33C50.8 141.25 54.46 142.36 57.37 140.81L64.81 137.02" stroke="#B2C1C5" stroke-miterlimit="10" stroke-linecap="round" stroke-linejoin="round"/>
<path d="M70.4 112.43L49.75 117.53C46.54 118.32 44.57 121.59 45.36 124.8C46.15 128.01 49.42 129.98 52.63 129.19L73.28 124.09C76.49 123.3 78.46 120.03 77.67 116.82C76.88 113.61 73.6 111.64 70.4 112.43Z" fill="white" stroke="#B2C1C5" stroke-miterlimit="10" stroke-linecap="round" stroke-linejoin="round"/>
<path d="M108.6 137.03H74.77V109.97L95.84 109.55L110.52 116.03L111.87 126.39L108.6 137.03Z" fill="white"/>
<path d="M76.63 99.5L47.93 106.58C44.12 107.52 41.77 111.4 42.71 115.21C43.65 119.02 47.53 121.37 51.34 120.43L80.04 113.35C83.85 112.41 86.2 108.53 85.26 104.72C84.32 100.91 80.44 98.56 76.63 99.5Z" fill="white" stroke="#B2C1C5" stroke-miterlimit="10" stroke-linecap="round" stroke-linejoin="round"/>
<path d="M82.33 90.94L52.95 94.23C49.05 94.67 46.22 98.21 46.66 102.11C47.1 106.01 50.64 108.84 54.54 108.4L83.92 105.11C87.82 104.67 90.65 101.13 90.21 97.23C89.77 93.34 86.22 90.51 82.33 90.94Z" fill="white" stroke="#B2C1C5" stroke-miterlimit="10" stroke-linecap="round" stroke-linejoin="round"/>
<path d="M112.24 122.8C112.76 117.87 113.11 114.82 110.16 112.23L87.96 92.6999C85.01 90.1099 80.49 90.3999 77.89 93.3499C75.3 96.2999 75.59 100.82 78.54 103.42" fill="white"/>
<path d="M112.24 122.8C112.76 117.87 113.11 114.82 110.16 112.23L87.96 92.6999C85.01 90.1099 80.49 90.3999 77.89 93.3499C75.3 96.2999 75.59 100.82 78.54 103.42" stroke="#B2C1C5" stroke-miterlimit="10" stroke-linecap="round" stroke-linejoin="round"/>
<path d="M102.97 47.98H39.65V115.19H102.97V47.98Z" fill="#FFFEF8" stroke="#B2C1C5" stroke-miterlimit="10" stroke-linecap="round" stroke-linejoin="round"/>
<path d="M84.82 131.95L74.14 108.6C72.18 104.32 67.08 102.41 62.8 104.37C58.52 106.33 56.61 111.43 58.57 115.71L69.25 139.06C69.25 139.06 65.67 144.01 65.67 153.48" fill="white"/>
<path d="M84.82 131.95L74.14 108.6C72.18 104.32 67.08 102.41 62.8 104.37C58.52 106.33 56.61 111.43 58.57 115.71L69.25 139.06C69.25 139.06 65.67 144.01 65.67 153.48" stroke="#B2C1C5" stroke-miterlimit="10" stroke-linecap="round" stroke-linejoin="round"/>
<path d="M98.83 52.38H43.79V82.74H98.83V52.38Z" fill="#D3E2E2" stroke="#B2C1C5" stroke-miterlimit="10" stroke-linecap="round" stroke-linejoin="round"/>
<path d="M64.81 137.03C64.81 137.03 64.39 141.52 66.8 144.76" stroke="#B2C1C5" stroke-miterlimit="10" stroke-linecap="round" stroke-linejoin="round"/>
<path d="M112.57 117.52C112.57 117.52 113.47 132.31 100.52 153.48" stroke="#B2C1C5" stroke-miterlimit="10" stroke-linecap="round" stroke-linejoin="round"/>
</g>
<defs>
<clipPath id="clip0_143_491">
<rect width="144.18" height="153.98" fill="white"/>
</clipPath>
</defs>
</svg>
