<svg width="100" height="100" viewBox="0 0 100 100" fill="none" xmlns="http://www.w3.org/2000/svg">
<g clip-path="url(#clip0_523_684)">
<path d="M50.0042 99.5907C77.39 99.5907 99.5906 77.3901 99.5906 50.0043C99.5906 22.6185 77.39 0.417969 50.0042 0.417969C22.6184 0.417969 0.417847 22.6185 0.417847 50.0043C0.417847 77.3901 22.6184 99.5907 50.0042 99.5907Z" stroke="#6B878E" stroke-miterlimit="10"/>
<path d="M18.1666 58.2766C18.7181 58.7111 19.0691 59.3546 19.2112 60.2236H17.9326C17.824 59.7222 17.5817 59.3546 17.2391 59.1039C16.8797 58.8532 16.4034 58.7362 15.8185 58.7362C15.0915 58.7362 14.5149 58.9785 14.0887 59.4715C13.6208 59.9896 13.3952 60.725 13.3952 61.6776C13.3952 62.5884 13.6041 63.2987 14.0135 63.7834C14.4564 64.3015 15.15 64.5689 16.1026 64.5689C16.4703 64.5689 16.8212 64.5271 17.1471 64.4352C17.448 64.3516 17.7237 64.2263 17.9828 64.0759V62.4798H15.9271V61.3935H19.2529V64.6775C18.8435 65.0034 18.3755 65.2458 17.8407 65.4129C17.2725 65.5884 16.6541 65.6719 15.9605 65.6719C14.7238 65.6719 13.7628 65.2792 13.0776 64.502C12.4342 63.7751 12.125 62.8308 12.125 61.6776C12.125 60.5161 12.4425 59.5551 13.0776 58.8114C13.7545 58.0092 14.6653 57.6164 15.8185 57.6164C16.8129 57.6081 17.59 57.8254 18.1666 58.2766Z" fill="#6B878E"/>
<path d="M24.1079 57.7666C24.9017 57.7666 25.5285 57.9421 25.9881 58.3014C26.4644 58.6942 26.7151 59.254 26.7151 59.9977C26.7151 60.3988 26.6064 60.7582 26.3892 61.0757C26.1468 61.4267 25.8126 61.6523 25.4031 61.7609V61.786C26.08 61.9364 26.456 62.3793 26.5396 63.1397L26.6733 64.3932C26.7151 64.8695 26.8822 65.2539 27.1412 65.538H25.7624C25.5786 65.2956 25.47 64.9614 25.4282 64.5269L25.3279 63.5742C25.2861 63.1481 25.1524 62.8472 24.9352 62.6634C24.7096 62.4712 24.3669 62.3793 23.9324 62.3793H21.9269V65.538H20.6567V57.7833H24.1079V57.7666ZM21.9269 61.2679H23.9324C24.4338 61.2679 24.8098 61.1593 25.0772 60.9504C25.3196 60.7331 25.4366 60.4323 25.4366 60.0395C25.4366 59.6133 25.3196 59.3125 25.0772 59.1287C24.8349 58.9365 24.4589 58.8446 23.9324 58.8446H21.9269V61.2679Z" fill="#6B878E"/>
<path d="M33.818 57.7666V58.8529H29.4978V61.0005H33.559V62.0868H29.4978V64.4349H34.0102V65.5213H28.2277V57.7666H33.818Z" fill="#6B878E"/>
<path d="M40.7955 57.7666V58.8529H36.4752V61.0005H40.5364V62.0868H36.4752V64.4349H40.9876V65.5213H35.2051V57.7666H40.7955Z" fill="#6B878E"/>
<path d="M43.4445 57.7666L47.28 63.3653H47.3218V57.7666H48.6003V65.5213H47.3636L43.4863 59.8473H43.4445V65.5213H42.1743V57.7666H43.4445Z" fill="#6B878E"/>
<path d="M55.8536 58.2766C56.4051 58.7111 56.7561 59.3546 56.8982 60.2236H55.6196C55.511 59.7222 55.2687 59.3546 54.9261 59.1039C54.5668 58.8532 54.0904 58.7362 53.5055 58.7362C52.7785 58.7362 52.2019 58.9785 51.7757 59.4715C51.3078 59.9896 51.0822 60.725 51.0822 61.6776C51.0822 62.5884 51.2911 63.2987 51.7005 63.7834C52.1434 64.3015 52.837 64.5689 53.7896 64.5689C54.1573 64.5689 54.5083 64.5271 54.8342 64.4352C55.135 64.3516 55.4107 64.2263 55.6698 64.0759V62.4798H53.6141V61.3935H56.9399V64.6775C56.5305 65.0034 56.0625 65.2458 55.5277 65.4129C54.9595 65.5884 54.3411 65.6719 53.6476 65.6719C52.4108 65.6719 51.4498 65.2792 50.7646 64.502C50.1212 63.7751 49.812 62.8308 49.812 61.6776C49.812 60.5161 50.1296 59.5551 50.7646 58.8114C51.4415 58.0092 52.3523 57.6164 53.5055 57.6164C54.4915 57.6081 55.277 57.8254 55.8536 58.2766Z" fill="#6B878E"/>
<path d="M59.6056 57.7666V62.6049C59.6056 63.2818 59.756 63.7664 60.0736 64.0923C60.3744 64.4099 60.8758 64.5686 61.561 64.5686C62.2378 64.5686 62.7309 64.4099 63.0484 64.0923C63.3492 63.7664 63.5164 63.2734 63.5164 62.6049V57.7666H64.7865V62.5798C64.7865 63.591 64.5024 64.3597 63.9425 64.8945C63.3743 65.4126 62.5888 65.68 61.561 65.68C60.5332 65.68 59.7393 65.421 59.1961 64.9113C58.6196 64.3681 58.3354 63.5993 58.3354 62.5882V57.775H59.6056V57.7666Z" fill="#6B878E"/>
<path d="M69.9591 57.7666L72.9256 65.5213H71.5718L70.8699 63.5742H67.6193L66.909 65.5213H65.5553L68.5218 57.7666H69.9591ZM70.4855 62.5297L69.2655 59.1287H69.2237L67.9953 62.5297H70.4855Z" fill="#6B878E"/>
<path d="M77.1454 57.7666C77.9393 57.7666 78.566 57.9421 79.0256 58.3014C79.5019 58.6942 79.7526 59.254 79.7526 59.9977C79.7526 60.3988 79.644 60.7582 79.4267 61.0757C79.1844 61.4267 78.8501 61.6523 78.4407 61.7609V61.786C79.1175 61.9364 79.4935 62.3793 79.5855 63.1397L79.7192 64.3932C79.761 64.8695 79.9281 65.2539 80.1871 65.538H78.8083C78.6245 65.2956 78.5159 64.9614 78.4741 64.5269L78.3738 63.5742C78.332 63.1481 78.1983 62.8472 77.9811 62.6634C77.7554 62.4712 77.4128 62.3793 76.9783 62.3793H74.9561V65.538H73.6859V57.7833H77.1454V57.7666ZM74.9561 61.2679H76.9699C77.4713 61.2679 77.8474 61.1593 78.1064 60.9504C78.3487 60.7331 78.4657 60.4323 78.4657 60.0395C78.4657 59.6133 78.3487 59.3125 78.1064 59.1287C77.8641 58.9365 77.488 58.8446 76.9699 58.8446H74.9561V61.2679Z" fill="#6B878E"/>
<path d="M84.0979 57.7666C85.3597 57.7666 86.304 58.1176 86.9558 58.8111C87.5742 59.4629 87.8917 60.4072 87.8917 61.6439C87.8917 62.8723 87.5742 63.8166 86.9558 64.4767C86.304 65.1703 85.3597 65.5213 84.0979 65.5213H81.2651V57.7666H84.0979ZM82.5269 64.4349H83.8556C84.8249 64.4349 85.5269 64.2093 85.9781 63.7581C86.4126 63.2985 86.6299 62.5966 86.6299 61.6356C86.6299 60.6579 86.4126 59.9392 85.9781 59.5047C85.5352 59.0618 84.8249 58.8446 83.8556 58.8446H82.5269V64.4349Z" fill="#6B878E"/>
<path d="M45.4668 43.1356C45.4668 39.6677 46.6199 32.6818 54.6002 30.0914C47.2717 34.4199 47.0127 41.3807 47.0377 42.7428L50.046 42.208C53.681 41.5646 56.6391 38.1134 56.6391 34.5035V28.0273L50.1129 29.1805C46.4779 29.8239 43.361 33.4589 43.361 37.3446V42.3166V43.311V50.5309C43.9125 50.7147 44.8902 50.6228 45.4668 50.7398V43.1356Z" fill="#6B878E"/>
</g>
<defs>
<clipPath id="clip0_523_684">
<rect width="100" height="100" fill="white"/>
</clipPath>
</defs>
</svg>
