<svg width="100" height="100" viewBox="0 0 100 100" fill="none" xmlns="http://www.w3.org/2000/svg">
<g clip-path="url(#clip0_523_698)">
<path d="M50.0042 99.5907C77.39 99.5907 99.5906 77.3901 99.5906 50.0043C99.5906 22.6185 77.39 0.417969 50.0042 0.417969C22.6184 0.417969 0.417847 22.6185 0.417847 50.0043C0.417847 77.3901 22.6184 99.5907 50.0042 99.5907Z" stroke="#6B878E" stroke-miterlimit="10"/>
<path d="M50.0042 32.4229C39.9682 32.4229 31.8375 39.8182 31.8375 48.9349C31.8375 53.4808 33.8598 57.5921 37.1187 60.5753V66.5835C37.1187 67.2937 37.8457 67.7784 38.5059 67.4943L44.8316 64.7618C46.4694 65.2047 48.2075 65.447 50.0042 65.447C60.0401 65.447 68.1708 58.0517 68.1708 48.9349C68.1708 39.8182 60.0317 32.4229 50.0042 32.4229Z" stroke="#6B878E" stroke-miterlimit="10"/>
<path d="M52.4693 45.2412V45.3415V45.2412C51.3913 45.2412 50.4554 45.8512 49.9958 46.7537C49.5362 45.8596 48.6003 45.2496 47.5223 45.2412C45.9848 45.2412 44.748 46.4863 44.748 48.0155V48.0322C44.7564 49.152 45.4918 50.3553 46.4026 51.4583C47.3134 52.5613 48.3998 53.539 49.1351 54.149C49.4192 54.383 49.6448 54.5669 49.7869 54.6755C49.8538 54.7256 49.929 54.7507 50.0042 54.7507C50.0794 54.7507 50.1546 54.7256 50.2214 54.6755C50.3635 54.5669 50.5891 54.383 50.8732 54.149C51.3579 53.7396 52.0013 53.1714 52.6531 52.5028C53.94 51.1826 55.2352 49.528 55.2519 48.0322V48.0072C55.2436 46.4863 54.0068 45.2496 52.4693 45.2412Z" fill="#6B878E"/>
<path d="M52.4693 45.2412V45.3415V45.2412ZM52.4693 45.2412C51.3913 45.2412 50.4554 45.8512 49.9958 46.7537C49.5362 45.8596 48.6003 45.2496 47.5223 45.2412C45.9848 45.2412 44.748 46.4863 44.748 48.0155V48.0322C44.7564 49.152 45.4918 50.3553 46.4026 51.4583C47.3134 52.5613 48.3998 53.539 49.1351 54.149C49.4192 54.383 49.6448 54.5669 49.7869 54.6755C49.8538 54.7256 49.929 54.7507 50.0042 54.7507C50.0794 54.7507 50.1546 54.7256 50.2214 54.6755C50.3635 54.5669 50.5891 54.383 50.8732 54.149C51.3579 53.7396 52.0013 53.1714 52.6531 52.5028C53.94 51.1826 55.2352 49.528 55.2519 48.0322V48.0072C55.2436 46.4863 54.0068 45.2496 52.4693 45.2412Z" stroke="#6B878E" stroke-miterlimit="10"/>
</g>
<defs>
<clipPath id="clip0_523_698">
<rect width="100" height="100" fill="white"/>
</clipPath>
</defs>
</svg>
