<svg width="100" height="100" viewBox="0 0 100 100" fill="none" xmlns="http://www.w3.org/2000/svg">
<g clip-path="url(#clip0_523_704)">
<path d="M50.0042 99.5907C77.39 99.5907 99.5906 77.3901 99.5906 50.0043C99.5906 22.6185 77.39 0.417969 50.0042 0.417969C22.6184 0.417969 0.417847 22.6185 0.417847 50.0043C0.417847 77.3901 22.6184 99.5907 50.0042 99.5907Z" stroke="#6B878E" stroke-miterlimit="10"/>
<path d="M61.8284 16.4873V83.5217" stroke="#6B878E" stroke-miterlimit="10"/>
<path d="M51.9512 28.1357C51.9512 29.2137 51.0821 30.0828 50.0042 30.0828C51.0821 30.0828 51.9512 30.9518 51.9512 32.0298C51.9512 30.9518 52.8202 30.0828 53.8982 30.0828C52.8202 30.0828 51.9512 29.2137 51.9512 28.1357Z" fill="#6B878E" stroke="#6B878E" stroke-miterlimit="10" stroke-linecap="round" stroke-linejoin="round"/>
<path d="M35.9405 53.3721C35.9405 54.9263 34.6787 56.1881 33.1244 56.1881C34.6787 56.1881 35.9405 57.45 35.9405 59.0042C35.9405 57.45 37.2023 56.1881 38.7565 56.1881C37.2023 56.1881 35.9405 54.9263 35.9405 53.3721Z" fill="#6B878E" stroke="#6B878E" stroke-miterlimit="10" stroke-linecap="round" stroke-linejoin="round"/>
<path d="M48.1157 59.9395C48.1157 61.3182 46.9959 62.4296 45.6255 62.4296C47.0043 62.4296 48.1157 63.5494 48.1157 64.9198C48.1157 63.541 49.2354 62.4296 50.6059 62.4296C49.2271 62.4296 48.1157 61.3182 48.1157 59.9395Z" fill="#6B878E" stroke="#6B878E" stroke-miterlimit="10" stroke-linecap="round" stroke-linejoin="round"/>
<path d="M42.3665 43.9453H44.5057" stroke="#6B878E" stroke-miterlimit="10" stroke-linecap="round" stroke-linejoin="round"/>
<path d="M43.436 42.876V45.0068" stroke="#6B878E" stroke-miterlimit="10" stroke-linecap="round" stroke-linejoin="round"/>
<path d="M22.9882 36.291H25.1274" stroke="#6B878E" stroke-miterlimit="10" stroke-linecap="round" stroke-linejoin="round"/>
<path d="M24.0577 35.2217V37.3609" stroke="#6B878E" stroke-miterlimit="10" stroke-linecap="round" stroke-linejoin="round"/>
<path d="M28.1858 75.5664H30.3167" stroke="#6B878E" stroke-miterlimit="10" stroke-linecap="round" stroke-linejoin="round"/>
<path d="M29.2471 74.5049V76.6357" stroke="#6B878E" stroke-miterlimit="10" stroke-linecap="round" stroke-linejoin="round"/>
</g>
<defs>
<clipPath id="clip0_523_704">
<rect width="100" height="100" fill="white"/>
</clipPath>
</defs>
</svg>
