<svg width="100" height="100" viewBox="0 0 100 100" fill="none" xmlns="http://www.w3.org/2000/svg">
<g clip-path="url(#clip0_523_665)">
<path d="M50.0041 99.5907C77.3899 99.5907 99.5905 77.3901 99.5905 50.0043C99.5905 22.6185 77.3899 0.417969 50.0041 0.417969C22.6183 0.417969 0.417725 22.6185 0.417725 50.0043C0.417725 77.3901 22.6183 99.5907 50.0041 99.5907Z" stroke="#6B878E" stroke-miterlimit="10"/>
<path d="M33.1996 40.9792L45.6505 53.4301L66.8003 32.2803" stroke="#6B878E" stroke-miterlimit="10"/>
<path d="M60.1152 32.2803H66.8003V38.9653" stroke="#6B878E" stroke-miterlimit="10"/>
<path d="M14.4314 61.3438H85.5687" stroke="#6B878E" stroke-miterlimit="10"/>
<path d="M18.3755 65.8812L22.9213 61.3438" stroke="#6B878E" stroke-miterlimit="10"/>
<path d="M24.25 65.8812L28.7875 61.3438" stroke="#6B878E" stroke-miterlimit="10"/>
<path d="M30.1161 65.8812L34.6619 61.3438" stroke="#6B878E" stroke-miterlimit="10"/>
<path d="M35.9906 65.8812L40.5281 61.3438" stroke="#6B878E" stroke-miterlimit="10"/>
<path d="M41.8567 65.8812L46.4025 61.3438" stroke="#6B878E" stroke-miterlimit="10"/>
<path d="M47.7312 65.8812L52.2687 61.3438" stroke="#6B878E" stroke-miterlimit="10"/>
<path d="M53.5974 65.8812L58.1432 61.3438" stroke="#6B878E" stroke-miterlimit="10"/>
<path d="M59.4718 65.8812L64.0093 61.3438" stroke="#6B878E" stroke-miterlimit="10"/>
<path d="M65.338 65.8812L69.8838 61.3438" stroke="#6B878E" stroke-miterlimit="10"/>
<path d="M71.2124 65.8812L75.7499 61.3438" stroke="#6B878E" stroke-miterlimit="10"/>
<path d="M77.0786 65.8812L81.6244 61.3438" stroke="#6B878E" stroke-miterlimit="10"/>
</g>
<defs>
<clipPath id="clip0_523_665">
<rect width="100" height="100" fill="white"/>
</clipPath>
</defs>
</svg>
