<svg width="100" height="100" viewBox="0 0 100 100" fill="none" xmlns="http://www.w3.org/2000/svg">
<g clip-path="url(#clip0_523_719)">
<path d="M50.0042 99.5907C77.39 99.5907 99.5906 77.3901 99.5906 50.0043C99.5906 22.6185 77.39 0.417969 50.0042 0.417969C22.6184 0.417969 0.417847 22.6185 0.417847 50.0043C0.417847 77.3901 22.6184 99.5907 50.0042 99.5907Z" stroke="#6B878E" stroke-miterlimit="10"/>
<path d="M37.7705 32.364L39.5504 30.9184C40.8958 29.832 42.9097 30.4838 43.3609 32.1551L43.9542 34.3695C44.2467 35.4558 45.2578 36.1996 46.3859 36.1327L48.6755 36.0074C50.4053 35.9154 51.6504 37.6285 51.032 39.2496L50.2047 41.3888C49.7953 42.4417 50.188 43.6367 51.1323 44.2467L53.0542 45.4918C54.5082 46.4277 54.5082 48.5585 53.0542 49.4944L51.1323 50.7395C50.188 51.3495 49.7953 52.5445 50.2047 53.5974L51.032 55.7366C51.6504 57.3494 50.4053 59.0708 48.6755 58.9789L46.3859 58.8535C45.2578 58.795 44.2467 59.5304 43.9542 60.6167L43.3609 62.8311C42.918 64.5024 40.8958 65.1542 39.5504 64.0679L37.7705 62.6222C36.8931 61.9119 35.6397 61.9119 34.7623 62.6222L32.9824 64.0679C31.637 65.1542 29.6231 64.5024 29.1719 62.8311L28.5786 60.6167C28.2861 59.5304 27.275 58.7867 26.1469 58.8535L23.8573 58.9789C22.1275 59.0708 20.8824 57.3577 21.5008 55.7366L22.3281 53.5974C22.7375 52.5445 22.3448 51.3495 21.4005 50.7395L19.4786 49.4944C18.0246 48.5585 18.0246 46.4277 19.4786 45.4918L21.4005 44.2467C22.3448 43.6367 22.7375 42.4417 22.3281 41.3888L21.5008 39.2496C20.8824 37.6368 22.1275 35.9154 23.8573 36.0074L26.1469 36.1327C27.275 36.1912 28.2861 35.4558 28.5786 34.3695L29.1719 32.1551C29.6148 30.4838 31.637 29.832 32.9824 30.9184L34.7623 32.364C35.6397 33.0743 36.8931 33.0743 37.7705 32.364Z" stroke="#6B878E" stroke-miterlimit="10"/>
<path d="M32.7233 42.2744L34.7288 44.1629" stroke="#6B878E" stroke-miterlimit="10"/>
<path d="M39.8095 42.2744L37.804 44.1629" stroke="#6B878E" stroke-miterlimit="10"/>
<path d="M32.7233 48.1242L36.2663 46.5615L39.8094 48.1242" stroke="#6B878E" stroke-miterlimit="10"/>
<path d="M68.4549 48.0575L69.583 47.1383C70.4354 46.4447 71.7223 46.8626 71.998 47.9238L72.3741 49.3277C72.5579 50.0212 73.2013 50.4892 73.92 50.4474L75.374 50.3722C76.4686 50.3137 77.2625 51.4084 76.8697 52.4279L76.3433 53.7816C76.0843 54.4501 76.3349 55.2105 76.9366 55.5949L78.1566 56.3888C79.0758 56.9821 79.0758 58.3358 78.1566 58.9291L76.9366 59.7229C76.3349 60.1157 76.0926 60.8677 76.3433 61.5362L76.8697 62.89C77.2625 63.9178 76.4686 65.0041 75.374 64.9456L73.92 64.8704C73.2013 64.8286 72.5579 65.2966 72.3741 65.9902L71.998 67.394C71.7139 68.4553 70.4354 68.8731 69.583 68.1795L68.4549 67.2603C67.8951 66.8091 67.1012 66.8091 66.5413 67.2603L65.4132 68.1795C64.5609 68.8731 63.274 68.4553 62.9983 67.394L62.6222 65.9902C62.4384 65.2966 61.795 64.8286 61.0763 64.8704L59.6223 64.9456C58.5276 65.0041 57.7338 63.9094 58.1265 62.89L58.653 61.5362C58.912 60.8677 58.6613 60.1073 58.0597 59.7229L56.8397 58.9291C55.9205 58.3358 55.9205 56.9821 56.8397 56.3888L58.0597 55.5949C58.6613 55.2022 58.9037 54.4501 58.653 53.7816L58.1265 52.4279C57.7338 51.4 58.5276 50.3137 59.6223 50.3722L61.0763 50.4474C61.795 50.4892 62.4384 50.0212 62.6222 49.3277L62.9983 47.9238C63.2824 46.8626 64.5609 46.4447 65.4132 47.1383L66.5413 48.0575C67.1012 48.5087 67.8951 48.5087 68.4549 48.0575Z" stroke="#6B878E" stroke-miterlimit="10"/>
<path d="M65.2461 54.3496L66.5246 55.5529" stroke="#6B878E" stroke-miterlimit="10"/>
<path d="M69.7502 54.3496L68.4717 55.5529" stroke="#6B878E" stroke-miterlimit="10"/>
<path d="M65.2461 58.0686L67.5023 57.0742L69.7501 58.0686" stroke="#6B878E" stroke-miterlimit="10"/>
</g>
<defs>
<clipPath id="clip0_523_719">
<rect width="100" height="100" fill="white"/>
</clipPath>
</defs>
</svg>
